<svg xmlns="http://www.w3.org/2000/svg" xmlns:xlink="http://www.w3.org/1999/xlink" width="600" zoomAndPan="magnify" viewBox="0 0 450 253.499997" height="338" preserveAspectRatio="xMidYMid meet" version="1.0"><defs><g/><clipPath id="d9d1eb241c"><path d="M 186.609375 75.417969 L 256 75.417969 L 256 142.035156 L 186.609375 142.035156 Z M 186.609375 75.417969 " clip-rule="nonzero"/></clipPath><clipPath id="afefbe72e6"><path d="M 202 97 L 270.441406 97 L 270.441406 135 L 202 135 Z M 202 97 " clip-rule="nonzero"/></clipPath></defs><g fill="#ff3131" fill-opacity="1"><g transform="translate(153.701562, 171.528668)"><g><path d="M 30.953125 0 L 24.5 0 L 24.5 -9.8125 L 18.734375 0 L 13.921875 0 L 8.171875 -9.8125 L 8.171875 0 L 1.71875 0 L 1.71875 -15.375 L 9.375 -15.375 L 16.34375 -4.390625 L 23.28125 -15.375 L 30.953125 -15.375 Z M 30.953125 0 "/></g></g></g><g fill="#ffffff" fill-opacity="1"><g transform="translate(188.566387, 171.528668)"><g><path d="M 24.53125 0 L 16.859375 0 L 8.171875 -10.40625 L 8.171875 0 L 1.71875 0 L 1.71875 -15.375 L 9.390625 -15.375 L 18.078125 -5.03125 L 18.078125 -15.375 L 24.53125 -15.375 Z M 24.53125 0 "/></g></g></g><g fill="#ffffff" fill-opacity="1"><g transform="translate(217.013227, 171.528668)"><g><path d="M 20.234375 0 L 1.71875 0 L 1.71875 -15.375 L 19.390625 -15.375 L 19.390625 -11.578125 L 8.171875 -11.578125 L 8.171875 -9.171875 L 17.65625 -9.171875 L 17.65625 -6.203125 L 8.171875 -6.203125 L 8.171875 -3.8125 L 20.234375 -3.8125 Z M 20.234375 0 "/></g></g></g><g fill="#ffffff" fill-opacity="1"><g transform="translate(240.304156, 171.528668)"><g><path d="M 25.90625 0 L 20.53125 0 L 16.734375 -9.984375 L 12.9375 0 L 7.5625 0 L 0.15625 -15.375 L 6.703125 -15.375 L 10.5625 -5.609375 L 14.703125 -15.375 L 18.765625 -15.375 L 22.90625 -5.609375 L 26.765625 -15.375 L 33.3125 -15.375 Z M 25.90625 0 "/></g></g></g><g fill="#ffffff" fill-opacity="1"><g transform="translate(275.964967, 171.528668)"><g><path d="M 10.15625 0.328125 C 8.082031 0.328125 6.40625 0.109375 5.125 -0.328125 C 3.851562 -0.773438 2.882812 -1.390625 2.21875 -2.171875 C 1.5625 -2.960938 1.117188 -3.867188 0.890625 -4.890625 L 7.734375 -4.890625 C 8.242188 -4.160156 9.050781 -3.796875 10.15625 -3.796875 C 11.269531 -3.796875 12.078125 -4.160156 12.578125 -4.890625 C 12.628906 -4.960938 12.65625 -5.023438 12.65625 -5.078125 C 12.65625 -5.273438 12.394531 -5.421875 11.875 -5.515625 C 11.363281 -5.609375 10.601562 -5.679688 9.59375 -5.734375 C 8.3125 -5.796875 6.96875 -5.929688 5.5625 -6.140625 C 2.425781 -6.628906 0.859375 -7.890625 0.859375 -9.921875 C 0.859375 -10.097656 0.867188 -10.28125 0.890625 -10.46875 C 1.117188 -11.488281 1.5625 -12.390625 2.21875 -13.171875 C 2.882812 -13.960938 3.851562 -14.578125 5.125 -15.015625 C 6.40625 -15.460938 8.082031 -15.6875 10.15625 -15.6875 C 12.238281 -15.6875 13.914062 -15.460938 15.1875 -15.015625 C 16.457031 -14.578125 17.425781 -13.960938 18.09375 -13.171875 C 18.757812 -12.390625 19.207031 -11.488281 19.4375 -10.46875 L 12.578125 -10.46875 C 12.078125 -11.195312 11.269531 -11.5625 10.15625 -11.5625 C 9.050781 -11.5625 8.242188 -11.195312 7.734375 -10.46875 C 7.703125 -10.414062 7.6875 -10.363281 7.6875 -10.3125 C 7.6875 -10.144531 7.929688 -10.019531 8.421875 -9.9375 C 8.910156 -9.851562 9.628906 -9.78125 10.578125 -9.71875 C 11.535156 -9.664062 12.550781 -9.570312 13.625 -9.4375 C 14.707031 -9.3125 15.71875 -9.085938 16.65625 -8.765625 C 17.601562 -8.453125 18.335938 -7.984375 18.859375 -7.359375 C 19.273438 -6.878906 19.484375 -6.273438 19.484375 -5.546875 C 19.484375 -5.335938 19.46875 -5.117188 19.4375 -4.890625 C 19.207031 -3.867188 18.757812 -2.960938 18.09375 -2.171875 C 17.425781 -1.390625 16.457031 -0.773438 15.1875 -0.328125 C 13.914062 0.109375 12.238281 0.328125 10.15625 0.328125 Z M 10.15625 0.328125 "/></g></g></g><g clip-path="url(#d9d1eb241c)"><path fill="#ff3131" d="M 221.507812 116.234375 L 199.410156 99.585938 L 199.410156 142.035156 L 186.6875 142.035156 L 186.6875 75.417969 L 207.804688 91.328125 L 221.507812 101.648438 L 255.054688 75.898438 L 255.054688 90.960938 L 231.1875 108.941406 L 228.253906 111.152344 Z M 242.296875 122.914062 L 242.332031 142.035156 L 255.054688 142.035156 L 255.015625 113.332031 Z M 242.296875 122.914062 " fill-opacity="1" fill-rule="nonzero"/></g><g clip-path="url(#afefbe72e6)"><path fill="#ffffff" d="M 251 97.832031 L 221.507812 120.050781 L 202.664062 105.851562 L 202.664062 120.433594 L 221.507812 134.632812 L 270.359375 97.832031 Z M 251 97.832031 " fill-opacity="1" fill-rule="nonzero"/></g><g fill="#ffffff" fill-opacity="1"><g transform="translate(234.748666, 117.743287)"><g><path d="M 1.625 0 L 0.15625 0 L 0.15625 -1.46875 L 1.625 -1.46875 Z M 1.625 0 "/></g></g></g></svg>